<?xml version="1.0" encoding="utf-8"?>
<svg viewBox="0 0 500 500" xmlns="http://www.w3.org/2000/svg">
  <g transform="matrix(0.060214001685380936, 0, 0, -0.060214001685380936, 14.494915962219238, 480.7100830078125)" fill="#ff0000" stroke="none" style="">
    <path d="M 3996.086 7593.176 C 3822.592 7572.274 3590.573 7524.198 3442.163 7479.257 C 3208.053 7408.187 2969.761 7310.989 2904.963 7258.733 C 2817.171 7188.709 2807.765 7047.615 2886.15 6964.004 C 2955.129 6889.8 3028.289 6890.844 3199.691 6966.094 C 3429.622 7067.473 3698.221 7144.812 3969.957 7186.618 C 4034.755 7197.07 4175.849 7206.476 4314.852 7209.612 C 4624.212 7216.927 4767.396 7201.25 5142.6 7117.639 C 5282.648 7086.285 5388.208 7178.257 5378.801 7323.532 C 5375.666 7377.878 5369.395 7396.69 5343.266 7429.09 C 5325.499 7451.038 5295.19 7477.166 5275.332 7486.573 C 5229.347 7509.566 5040.177 7552.417 4863.549 7580.634 C 4680.65 7608.853 4185.255 7616.169 3996.086 7593.176 Z" style="fill: rgb(84, 157, 211);"/>
    <path d="M 965.189 7239.921 C 948.466 7231.559 919.203 7209.612 900.39 7190.799 C 816.78 7100.917 580.578 6750.796 494.877 6590.891 C 459.343 6524.002 456.208 6511.46 460.388 6448.752 C 463.523 6392.314 469.794 6372.457 493.832 6340.057 C 532.502 6288.846 603.571 6257.492 663.145 6264.808 C 738.395 6273.169 776.019 6304.523 841.863 6416.353 C 929.655 6566.852 1018.49 6700.63 1125.095 6844.859 C 1200.344 6947.282 1221.248 6982.817 1227.518 7020.442 C 1234.834 7073.744 1220.202 7139.588 1188.848 7183.483 C 1145.998 7243.055 1035.213 7271.274 965.189 7239.921 Z" style="fill: rgb(84, 157, 211);"/>
    <path d="M 5788.495 7201.25 C 5731.012 7167.805 5700.703 7116.594 5696.523 7041.345 C 5693.387 6989.087 5697.568 6969.23 5718.47 6930.56 C 5739.373 6889.8 5762.366 6872.032 5879.421 6799.918 C 6136.525 6642.102 6301.657 6510.415 6505.459 6302.433 C 6765.697 6033.833 6952.777 5764.187 7117.908 5417.202 C 7215.107 5210.265 7211.971 5215.491 7260.047 5181.001 C 7294.537 5156.963 7313.349 5150.692 7358.29 5150.692 C 7445.036 5150.692 7505.654 5191.452 7539.099 5270.883 C 7571.498 5350.313 7564.182 5382.712 7454.443 5612.642 C 7170.166 6205.235 6737.479 6710.036 6210.73 7061.202 C 6016.335 7189.754 5950.491 7223.198 5882.557 7223.198 C 5843.888 7223.198 5813.578 7215.882 5788.495 7201.25 Z" style="fill: rgb(84, 157, 211);"/>
    <path d="M 2333.273 6887.71 C 2265.339 6867.852 1977.926 6589.845 1818.021 6388.134 C 1456.403 5933.5 1217.067 5385.848 1132.411 4816.249 C 1114.643 4703.373 1121.959 4652.162 1160.63 4596.77 C 1207.66 4531.971 1324.716 4506.887 1398.92 4546.603 C 1463.72 4581.093 1488.803 4631.259 1513.886 4777.578 C 1621.535 5430.788 1921.489 5987.846 2415.838 6453.978 C 2500.495 6534.453 2562.158 6601.341 2568.429 6620.154 C 2574.699 6636.876 2579.925 6674.501 2579.925 6702.72 C 2579.925 6837.543 2462.87 6925.334 2333.273 6887.71 Z" style="fill: rgb(84, 157, 211);"/>
    <path d="M 4451.765 6355.735 C 4316.942 6325.426 4260.505 6141.482 4352.477 6031.743 C 4393.237 5983.666 4431.907 5969.034 4542.691 5957.537 C 5190.677 5892.739 5756.095 5479.91 6059.185 4851.783 C 6095.765 4776.533 6115.623 4750.405 6154.292 4730.547 C 6253.581 4680.38 6370.636 4721.141 6416.622 4824.609 C 6456.337 4910.31 6436.479 4979.29 6313.153 5198.769 C 5963.032 5816.444 5362.079 6241.815 4701.552 6337.967 C 4548.963 6360.96 4492.525 6364.096 4451.765 6355.735 Z" style="fill: rgb(84, 157, 211);"/>
    <path d="M 3672.093 6247.04 C 3396.177 6156.113 3112.944 5979.485 2897.647 5765.233 C 2541.255 5410.931 2331.183 4961.522 2288.332 4462.992 C 2275.79 4319.809 2286.242 4267.551 2337.453 4213.204 C 2424.2 4123.323 2557.977 4136.909 2629.047 4243.513 C 2655.175 4281.138 2656.22 4289.5 2672.942 4461.947 C 2734.606 5089.029 3165.202 5634.59 3774.517 5859.295 C 3847.676 5886.468 3879.03 5904.235 3904.113 5932.454 C 4000.266 6042.194 3952.19 6223.003 3816.322 6260.627 C 3763.02 6275.259 3756.749 6275.259 3672.093 6247.04 Z" style="fill: rgb(84, 157, 211);"/>
    <path d="M 249.27 5935.59 C 189.698 5905.281 162.523 5863.476 123.854 5742.24 C 17.25 5409.886 -54.864 5041.998 -86.219 4665.748 C -101.896 4469.263 -93.535 3920.566 -70.542 3737.667 C -49.639 3572.536 -25.601 3425.171 -10.969 3381.276 C -5.743 3363.509 14.114 3335.29 32.927 3316.477 C 138.486 3215.099 302.572 3257.95 344.377 3399.042 C 355.875 3434.577 352.739 3471.157 329.746 3641.514 C 288.985 3929.973 277.489 4130.639 283.759 4396.103 C 295.257 4828.79 361.1 5224.897 485.471 5608.462 C 514.735 5697.299 522.051 5735.968 518.916 5777.774 C 507.419 5917.822 371.551 5997.252 249.27 5935.59 Z" style="fill: rgb(84, 157, 211);"/>
    <path d="M 4416.231 5106.796 C 4306.491 5068.126 4254.234 4941.665 4303.355 4835.061 C 4327.394 4781.759 4376.515 4738.908 4427.727 4727.412 C 4448.63 4722.186 4490.435 4712.78 4518.654 4705.464 C 4611.671 4684.561 4734.997 4615.582 4814.427 4542.422 C 5060.035 4314.583 5154.097 3939.379 5056.899 3577.762 C 5027.635 3470.112 4982.695 3377.095 4903.264 3258.994 C 4828.014 3146.12 4812.337 3091.773 4837.42 3017.568 C 4864.594 2933.957 4929.393 2885.88 5015.094 2885.88 C 5092.434 2885.88 5132.149 2908.874 5191.722 2989.349 C 5392.388 3262.13 5485.405 3571.49 5471.818 3919.521 C 5461.367 4196.482 5390.298 4423.277 5245.023 4639.62 C 5178.135 4739.953 5033.906 4886.273 4941.934 4945.845 C 4756.945 5067.081 4513.428 5142.331 4416.231 5106.796 Z" style="fill: rgb(84, 157, 211);"/>
    <path d="M 3753.614 4872.686 C 3701.357 4859.098 3670.003 4834.015 3618.791 4763.991 C 3553.992 4677.245 3515.323 4598.86 3482.923 4488.075 C 3460.975 4411.78 3455.749 4374.155 3455.749 4270.687 C 3454.705 4121.233 3473.517 4036.576 3532.045 3912.205 C 3614.61 3740.803 3761.975 3623.747 3931.287 3596.574 C 4168.533 3558.949 4419.365 3746.029 4419.365 3960.282 C 4419.365 4048.073 4404.734 4095.104 4357.703 4157.812 C 4314.852 4215.294 4245.873 4255.009 4189.436 4255.009 C 4136.134 4253.965 4071.336 4221.566 4036.845 4176.625 C 4012.808 4144.225 4006.536 4124.367 4003.402 4065.84 C 3998.176 3981.184 3983.544 3973.868 3925.016 4025.08 C 3865.443 4077.337 3839.315 4149.451 3839.315 4265.461 C 3839.315 4356.388 3842.451 4369.975 3872.76 4432.683 C 3891.572 4470.308 3922.926 4522.565 3942.784 4550.784 C 3984.589 4608.266 3998.176 4670.974 3981.453 4733.682 C 3954.28 4835.061 3851.857 4896.724 3753.614 4872.686 Z" style="fill: rgb(84, 157, 211);"/>
    <path d="M 7504.609 4786.984 C 7449.217 4759.811 7407.411 4700.238 7401.141 4639.62 C 7398.005 4614.537 7405.321 4538.242 7417.863 4469.263 C 7457.578 4236.197 7465.939 4120.187 7464.894 3831.73 C 7464.894 3600.754 7460.713 3518.188 7441.901 3377.095 C 7400.095 3066.69 7327.981 2786.593 7218.242 2506.496 C 7171.21 2385.26 7165.985 2365.403 7170.166 2305.83 C 7173.3 2254.618 7180.617 2232.67 7202.565 2202.361 C 7273.634 2109.344 7402.185 2099.938 7483.706 2180.414 C 7566.272 2264.024 7733.494 2786.593 7794.112 3152.39 C 7836.963 3408.449 7842.189 3491.015 7842.189 3852.632 C 7842.189 4214.25 7838.007 4272.777 7794.112 4537.196 C 7764.848 4712.78 7740.81 4757.721 7656.154 4793.256 C 7603.897 4815.203 7557.912 4813.113 7504.609 4786.984 Z" style="fill: rgb(84, 157, 211);"/>
    <path d="M 6365.41 4341.756 C 6283.89 4302.041 6253.581 4219.476 6269.258 4080.472 C 6302.702 3781.563 6261.941 3416.81 6159.518 3109.541 C 6053.959 2794.953 5898.234 2530.535 5667.259 2276.566 C 5553.339 2151.149 5537.662 2123.976 5537.662 2051.862 C 5537.662 1963.025 5578.422 1899.271 5655.762 1866.872 C 5728.922 1836.563 5804.172 1854.331 5871.061 1917.039 C 5935.859 1978.702 6086.359 2159.511 6161.608 2265.07 C 6521.135 2771.961 6693.583 3387.546 6654.913 4025.08 C 6644.461 4200.663 6635.055 4242.468 6597.43 4292.635 C 6550.4 4356.388 6440.66 4379.381 6365.41 4341.756 Z" style="fill: rgb(84, 157, 211);"/>
    <path d="M 1237.969 4134.819 C 1184.667 4116.007 1141.817 4073.156 1119.869 4016.719 C 1103.147 3973.868 1103.147 3962.372 1120.915 3832.774 C 1218.112 3078.186 1552.555 2399.892 2068.853 1909.723 C 2205.766 1779.081 2254.887 1746.682 2317.595 1746.682 C 2429.425 1746.682 2511.991 1831.338 2511.991 1945.258 C 2511.991 2022.598 2482.728 2068.584 2371.943 2165.781 C 2119.02 2387.35 1872.367 2732.245 1722.913 3072.96 C 1625.715 3294.529 1541.059 3590.303 1508.66 3818.143 C 1480.441 4022.99 1474.17 4042.847 1432.365 4086.743 C 1409.372 4110.781 1376.973 4131.683 1351.89 4139 C 1299.633 4153.632 1288.136 4152.586 1237.969 4134.819 Z" style="fill: rgb(84, 157, 211);"/>
    <path d="M 2532.894 3779.472 C 2448.237 3749.163 2392.845 3653.012 2408.522 3561.039 C 2417.928 3502.511 2485.862 3350.967 2554.842 3233.911 C 2927.956 2599.513 3612.52 2279.701 4296.039 2420.795 C 4477.893 2458.42 4536.421 2487.684 4573 2561.888 C 4601.219 2616.235 4604.355 2682.079 4581.362 2736.426 C 4560.459 2786.593 4538.511 2810.631 4490.435 2834.669 C 4439.224 2860.797 4398.463 2859.753 4281.407 2828.398 C 4159.127 2795.999 4013.852 2783.457 3875.894 2793.909 C 3412.899 2828.398 2983.348 3159.707 2787.908 3631.063 C 2750.282 3720.945 2708.477 3766.931 2645.769 3783.653 C 2595.602 3798.285 2584.105 3797.24 2532.894 3779.472 Z" style="fill: rgb(84, 157, 211);"/>
    <path d="M 274.354 2886.926 C 208.51 2846.165 168.795 2763.6 179.246 2686.26 C 190.742 2598.469 377.822 2179.368 505.328 1954.664 C 750.936 1523.023 1094.786 1111.238 1476.261 791.426 C 1594.362 692.139 1621.535 677.507 1684.243 677.507 C 1769.944 677.507 1830.562 718.267 1864.007 797.698 C 1907.902 904.302 1874.457 974.326 1711.416 1111.238 C 1220.202 1523.023 856.495 2029.913 593.12 2664.311 C 554.45 2758.374 514.735 2844.075 505.328 2854.527 C 457.252 2907.829 336.017 2924.551 274.354 2886.926 Z" style="fill: rgb(84, 157, 211);"/>
    <path d="M 6900.52 1836.563 C 6866.03 1820.886 6851.399 1805.21 6711.351 1622.31 C 6532.632 1390.29 6243.129 1112.284 5992.297 935.656 C 5768.637 776.795 5492.721 628.385 5250.249 534.324 C 5103.93 477.886 5077.802 462.209 5046.447 407.862 C 5017.184 354.56 5013.004 263.633 5038.087 215.556 C 5073.622 147.622 5139.465 105.817 5209.49 105.817 C 5284.739 105.817 5632.769 255.271 5866.88 386.959 C 6333.011 650.333 6728.072 995.228 7052.065 1420.599 C 7149.263 1548.106 7168.075 1585.731 7168.075 1649.485 C 7168.075 1678.748 7162.85 1716.373 7156.579 1733.095 C 7142.991 1768.629 7099.096 1816.706 7061.471 1836.563 C 7025.937 1855.376 6943.371 1854.331 6900.52 1836.563 Z" style="fill: rgb(84, 157, 211);"/>
    <path d="M 4950.296 1757.133 C 4611.671 1597.227 4175.849 1516.751 3811.096 1546.016 C 3546.676 1567.963 3340.785 1614.994 3103.538 1706.967 C 3012.611 1742.502 2986.484 1748.772 2940.497 1744.592 C 2831.803 1735.185 2759.689 1643.213 2771.185 1529.293 C 2783.727 1409.103 2838.074 1369.388 3121.306 1276.371 C 3774.517 1062.117 4494.616 1104.968 5120.653 1394.471 C 5266.972 1462.405 5320.274 1535.564 5303.551 1645.303 C 5288.919 1743.546 5225.166 1801.029 5126.923 1806.254 C 5067.35 1810.436 5053.763 1806.254 4950.296 1757.133 Z" style="fill: rgb(84, 157, 211);"/>
    <path d="M 2236.075 652.424 C 2126.335 598.076 2100.208 437.125 2185.909 338.882 C 2256.977 258.407 2673.988 92.23 3038.74 1.303 C 3352.281 -77.082 3420.215 -84.398 3890.526 -89.624 C 4484.164 -96.94 4582.407 -83.352 4646.16 12.8 C 4671.243 50.425 4675.424 68.193 4675.424 126.719 C 4675.424 185.247 4671.243 203.015 4646.16 239.595 C 4630.484 264.678 4599.129 292.896 4573 305.438 L 4529.105 328.431 L 4330.529 309.619 C 4067.154 284.536 3679.409 291.852 3463.065 325.296 C 3111.9 378.597 2809.855 468.48 2494.224 613.754 C 2359.402 675.416 2301.919 684.823 2236.075 652.424 Z" style="fill: rgb(84, 157, 211);"/>
  </g>
</svg>